# xmcd CD database file
#
# Track frame offsets:
#	150
#	11646
#	31146
#	49593
#	65126
#	79166
#	95967
#	116894
#	136617
#	149300
#	171722
#
# Disc length: 2629 seconds
#
# Revision: 2
# Processed by: cddbd v1.5.1PL0 Copyright (c) Steve Scherf et al.
# Submitted via: CDex 1.50
#
DISCID=9f0a430b
DTITLE=The Down Home Blues Band - Waitin' On You
DYEAR=1900
DGENRE=Blues
TTITLE0=It's Alright
TTITLE1=Things That I Used To Do
TTITLE2=Who's Been Talkin'
TTITLE3=Sick And Tired
TTITLE4=It Hurts Me, Too
TTITLE5=Boogie Thang
TTITLE6=Born Under A Bad Sign
TTITLE7=Pick Up The Pieces
TTITLE8=Waitin' On You
TTITLE9=Season Of A Which
TTITLE10=Right Place, Wrong Time
EXTD=
EXTT0=
EXTT1=
EXTT2=
EXTT3=
EXTT4=
EXTT5=
EXTT6=
EXTT7=
EXTT8=
EXTT9=
EXTT10=
PLAYORDER=
